# xmcd
#
# Track frame offsets:
#	150
#	18417
#	37162
#	57010
#	74322
#	84000
#	103085
#	120042
#	134567
#	153760
#	169040
#	188232
#	201742
#	215967
#	229702
#	244842
#	259285
#	277852
#	297205
#	313455
#	322877
#
# Disc length: 4563 seconds
#
# Revision: 0
# Processed by: cddbd v1.5.1PL0 Copyright (c) Steve Scherf et al.
# Submitted via: audiograbber 1.82.02
#
DISCID=3411d115
DTITLE=Various Artist - Real Australian Blues (Vol 2)
DYEAR=1993
DGENRE=Blues
TTITLE0=Whose Muddy Shoes - Gasoline
TTITLE1=Matt Taylor's Chain - Mighty Time
TTITLE2=Steve Tallis - Serve Nobody
TTITLE3=Mighty Reapers - You Gotta Reap
TTITLE4=Chris Finnen - Celtic Blues
TTITLE5=Tinsley Waterhouse Band - I've Lost My Dream
TTITLE6=Lil' Fi and The Delta Rhythm Kings - Wise Up
TTITLE7=Marlon B Rando - Boogie All Night Long
TTITLE8=Howlin' Time - Good Thing
TTITLE9=Carson Taylor Band - Do it Right
TTITLE10=Johnno's Blues Band - Cape Tribulation
TTITLE11=The Blues Preachers - Ringing for Blues
TTITLE12=Hipshot Blues Band - When My Baby
TTITLE13=Johnny Gray's Rockinitis - Tweed Heads Jail
TTITLE14=The Barflys - Mulloway
TTITLE15=G. Men - Take it Easy
TTITLE16=Doc Span and Ross Williams - Take a Walk
TTITLE17=The Gwyn Ashton Band - We'll Find a Way
TTITLE18=Blind Freddy - No Woman Blues
TTITLE19=Greg Baker - Hot to Trot
TTITLE20=Geoff Achison - Don't Play Guitar Boy
EXTD=YEAR: 1993 ID3G: 0
EXTT0=
EXTT1=
EXTT2=
EXTT3=
EXTT4=
EXTT5=
EXTT6=
EXTT7=
EXTT8=
EXTT9=
EXTT10=
EXTT11=
EXTT12=
EXTT13=
EXTT14=
EXTT15=
EXTT16=
EXTT17=
EXTT18=
EXTT19=
EXTT20=
PLAYORDER=
